<svg width="1728" height="1117" viewBox="0 0 1728 1117" fill="none" xmlns="http://www.w3.org/2000/svg">
<g clip-path="url(#clip0_1_35)">
<rect width="1728" height="1117" fill="#0E9577"/>
<g filter="url(#filter0_f_1_35)">
<path fill-rule="evenodd" clip-rule="evenodd" d="M345.8 490.153C410.812 508.306 430.444 591.248 483.487 632.99C529.207 668.969 617.382 660.045 632.929 716.108C649.32 775.217 558.111 815.816 551.084 876.751C543.699 940.795 620.684 1003.25 593.098 1061.52C567.133 1116.36 490.376 1131.05 429.73 1133.08C374.682 1134.92 334.066 1081.44 279.802 1072C214.543 1060.65 130.823 1121.06 85.1112 1073.12C40.274 1026.1 86.7229 946.429 99.2735 882.681C108.141 837.641 140.985 802.09 147.42 756.639C157.786 683.42 103.735 598.603 147.893 539.286C189.32 483.636 278.979 471.496 345.8 490.153Z" fill="#FBFAE1"/>
</g>
<g filter="url(#filter1_f_1_35)">
<path fill-rule="evenodd" clip-rule="evenodd" d="M1397.83 563.648C1457.9 546.201 1523.31 571.908 1577.34 603.443C1632.76 635.791 1679.79 683.489 1704.56 742.686C1728.94 800.946 1737.38 869.774 1713.19 928.111C1690.49 982.858 1627.67 1005.07 1580.74 1041.27C1543.75 1069.8 1506.78 1093.71 1466.92 1118.08C1411.56 1151.93 1358.86 1241.78 1301.08 1212.25C1237.65 1179.83 1287.7 1070.57 1252.66 1008.56C1228.2 965.279 1157.29 965.378 1136.13 920.394C1113.47 872.217 1109.99 809.457 1137.56 763.909C1164.91 718.723 1232.93 723.524 1274.79 691.315C1322.6 654.528 1339.9 580.473 1397.83 563.648Z" fill="#6150C1"/>
</g>
<g filter="url(#filter2_f_1_35)">
<path fill-rule="evenodd" clip-rule="evenodd" d="M346.16 -45.9613C433.982 -44.3372 513.145 6.93071 569.127 74.6167C620.19 136.355 626.005 217.581 630.301 297.584C634.962 384.384 648.019 477.414 594.432 545.856C536.015 620.468 440.553 668.831 346.16 660.494C256.64 652.588 200.277 570.527 138.182 505.562C78.3008 442.913 3.88822 384.125 -0.719345 297.584C-5.48358 208.1 51.1212 129.273 114.791 66.2151C178.098 3.51628 257.074 -47.6087 346.16 -45.9613Z" fill="#F1EFB9"/>
</g>
<g filter="url(#filter3_f_1_35)">
<path fill-rule="evenodd" clip-rule="evenodd" d="M1273.46 531.499C1361.09 524.078 1461.45 508.15 1524.37 569.59C1587.57 631.305 1576.39 732.438 1569.42 820.498C1563.15 899.677 1543.7 978.409 1487.56 1034.59C1431.39 1090.79 1352.88 1114.26 1273.46 1116.66C1191.17 1119.15 1107.65 1102.53 1046.03 1047.93C980.845 990.19 936.04 907.521 939.153 820.498C942.183 735.775 997.598 664.213 1061.73 608.77C1120.82 557.693 1195.64 538.09 1273.46 531.499Z" fill="#04DEAD"/>
</g>
<g filter="url(#filter4_f_1_35)">
<path fill-rule="evenodd" clip-rule="evenodd" d="M988.169 14.7593C1043.7 21.5039 1098.47 33.933 1144.5 65.72C1189.59 96.8538 1219.74 143.047 1244.64 191.853C1270.5 242.511 1295.59 295.826 1290.85 352.501C1285.99 410.788 1262.77 470.426 1218.22 508.318C1175.54 544.607 1114.83 552.397 1058.87 549.782C1012.39 547.61 979.106 504.478 933.545 495.014C881.611 484.226 818.045 525.785 777.681 491.371C738.694 458.132 753.604 393.768 754.717 342.547C755.679 298.255 776.704 259.342 783.672 215.591C793.962 150.985 758.689 70.3715 805.365 24.5325C849.802 -19.1084 926.34 7.25033 988.169 14.7593Z" fill="#04DEAD"/>
</g>
<g filter="url(#filter5_f_1_35)">
<path fill-rule="evenodd" clip-rule="evenodd" d="M946.548 554.078C976.526 571.687 988.464 609.647 1016.42 630.312C1036.68 645.287 1063.75 646.146 1086.3 657.375C1113.07 670.704 1143.69 679.933 1162.61 703.096C1181.74 726.531 1195.4 757.708 1192.85 787.857C1190.26 818.57 1147.97 837.369 1148.66 868.185C1149.71 915.524 1206.97 953.844 1197.59 1000.26C1189.97 1037.94 1135.91 1044.82 1107.67 1070.9C1073.94 1102.06 1059.5 1166.24 1013.73 1170.08C965.398 1174.13 940.886 1103.14 894.566 1088.76C854.762 1076.4 809.369 1110.26 770.735 1094.63C732.959 1079.34 690.106 1046.16 688.658 1005.43C686.742 951.54 756.539 916.639 762.5 863.046C765.815 833.239 728.429 814.567 712.729 789.013C685.549 744.775 633.984 707.466 635.015 655.555C635.861 612.966 681.674 582.563 717.293 559.199C751.963 536.458 794.053 524.972 835.505 524.046C874.169 523.182 913.201 534.492 946.548 554.078Z" fill="#FBFAE1"/>
</g>
</g>
<defs>
<filter id="filter0_f_1_35" x="-434" y="-18" width="1568.9" height="1651.12" filterUnits="userSpaceOnUse" color-interpolation-filters="sRGB">
<feFlood flood-opacity="0" result="BackgroundImageFix"/>
<feBlend mode="normal" in="SourceGraphic" in2="BackgroundImageFix" result="shape"/>
<feGaussianBlur stdDeviation="250" result="effect1_foregroundBlur_1_35"/>
</filter>
<filter id="filter1_f_1_35" x="618" y="58" width="1609.64" height="1660.12" filterUnits="userSpaceOnUse" color-interpolation-filters="sRGB">
<feFlood flood-opacity="0" result="BackgroundImageFix"/>
<feBlend mode="normal" in="SourceGraphic" in2="BackgroundImageFix" result="shape"/>
<feGaussianBlur stdDeviation="250" result="effect1_foregroundBlur_1_35"/>
</filter>
<filter id="filter2_f_1_35" x="-501" y="-546" width="1636.14" height="1707.43" filterUnits="userSpaceOnUse" color-interpolation-filters="sRGB">
<feFlood flood-opacity="0" result="BackgroundImageFix"/>
<feBlend mode="normal" in="SourceGraphic" in2="BackgroundImageFix" result="shape"/>
<feGaussianBlur stdDeviation="250" result="effect1_foregroundBlur_1_35"/>
</filter>
<filter id="filter3_f_1_35" x="439" y="24" width="1635.92" height="1592.9" filterUnits="userSpaceOnUse" color-interpolation-filters="sRGB">
<feFlood flood-opacity="0" result="BackgroundImageFix"/>
<feBlend mode="normal" in="SourceGraphic" in2="BackgroundImageFix" result="shape"/>
<feGaussianBlur stdDeviation="250" result="effect1_foregroundBlur_1_35"/>
</filter>
<filter id="filter4_f_1_35" x="251" y="-500" width="1540.43" height="1550.24" filterUnits="userSpaceOnUse" color-interpolation-filters="sRGB">
<feFlood flood-opacity="0" result="BackgroundImageFix"/>
<feBlend mode="normal" in="SourceGraphic" in2="BackgroundImageFix" result="shape"/>
<feGaussianBlur stdDeviation="250" result="effect1_foregroundBlur_1_35"/>
</filter>
<filter id="filter5_f_1_35" x="135" y="24" width="1563.63" height="1646.24" filterUnits="userSpaceOnUse" color-interpolation-filters="sRGB">
<feFlood flood-opacity="0" result="BackgroundImageFix"/>
<feBlend mode="normal" in="SourceGraphic" in2="BackgroundImageFix" result="shape"/>
<feGaussianBlur stdDeviation="250" result="effect1_foregroundBlur_1_35"/>
</filter>
<clipPath id="clip0_1_35">
<rect width="1728" height="1117" fill="white"/>
</clipPath>
</defs>
</svg>
